<svg width="186" height="50" viewBox="0 0 186 50" fill="none" xmlns="http://www.w3.org/2000/svg">
<path fill-rule="evenodd" clip-rule="evenodd" d="M120.051 10.5958L105.836 50L88.5256 29.654L71.4172 42.0047L62.9776 29.3716L66.5698 26.9817L72.5211 35.8903L89.2314 23.827L104.3 41.5382L115.989 9.13647L120.051 10.5958Z" fill="black"/>
<path d="M6.64862 32.485H0V0H6.64862V18.6983L13.6426 10.9432H21.975L13.8585 19.4738L21.7159 32.485H14.0312L9.19581 24.4284L6.64862 27.0995V32.485Z" fill="#5552FF"/>
<path d="M31.3549 32.485H24.7063V10.9432H30.9664L31.3981 13.1836C32.7365 11.331 35.1973 10.2539 38.0036 10.2539C43.1411 10.2539 46.12 13.5282 46.12 19.1722V32.485H39.4714V20.7663C39.4714 18.052 37.9604 16.2856 35.6722 16.2856C33.0387 16.2856 31.3549 18.0089 31.3549 20.6801V32.485Z" fill="#5552FF"/>
<path d="M49.7226 21.671C49.7226 14.8638 54.7307 10.297 61.6383 10.297C68.5028 10.297 73.5108 14.8638 73.5108 21.671C73.5108 28.4782 68.5028 33.002 61.6383 33.002C54.7307 33.002 49.7226 28.4782 49.7226 21.671ZM56.4144 21.6279C56.4144 24.9023 58.5299 27.0565 61.6383 27.0565C64.7036 27.0565 66.8191 24.9023 66.8191 21.6279C66.8191 18.3967 64.7036 16.2425 61.6383 16.2425C58.5299 16.2425 56.4144 18.3967 56.4144 21.6279Z" fill="#5552FF"/>
<path d="M129.587 33.0451C125.011 33.0451 122.161 30.3739 122.161 26.1517C122.161 22.188 124.967 19.7323 130.148 19.3445L136.192 18.8706V18.5259C136.192 16.4148 134.897 15.2947 132.523 15.2947C129.716 15.2947 128.205 16.3717 128.205 18.3105H122.679C122.679 13.4421 126.694 10.2539 132.868 10.2539C139.128 10.2539 142.668 13.7436 142.668 19.9046V32.485H136.797L136.365 29.6415C135.674 31.6233 132.825 33.0451 129.587 33.0451ZM131.918 28.1335C134.465 28.1335 136.236 26.8841 136.236 24.4284V23.2651L132.868 23.5667C129.976 23.8252 128.939 24.4714 128.939 25.8501C128.939 27.4011 129.889 28.1335 131.918 28.1335Z" fill="black"/>
<path d="M162.288 10.9432V17.1903H160.173C156.374 17.1903 154.086 18.8706 154.086 23.1359V32.485H147.437V10.9863H153.697L154.042 14.1745C154.949 12.0634 156.849 10.6416 159.741 10.6416C160.518 10.6416 161.382 10.7278 162.288 10.9432Z" fill="black"/>
<path d="M175.034 33.0451C168.515 33.0451 163.852 28.3059 163.852 21.671C163.852 14.95 168.385 10.2539 174.905 10.2539C181.683 10.2539 185.914 14.6915 185.914 21.7141V23.3944L170.242 23.4805C170.63 26.324 172.228 27.6596 175.164 27.6596C177.668 27.6596 179.438 26.7549 179.913 25.2039H186C185.223 29.9861 180.949 33.0451 175.034 33.0451ZM174.948 15.6393C172.314 15.6393 170.846 16.8026 170.328 19.3876H179.308C179.308 17.1042 177.624 15.6393 174.948 15.6393Z" fill="black"/>
</svg>
